# Blender v2.92.0 OBJ File: ''
# www.blender.org
o 0_TEX_200_Mesh.006
v 0.318966 1.333103 0.400775
v -0.318826 1.976154 0.400775
v -0.318826 1.333103 0.400775
v 0.318966 1.976154 0.400775
v -0.318826 1.333103 0.412761
v -0.318826 1.976154 0.400775
v -0.318826 1.976154 0.412761
v -0.318826 1.333103 0.400775
v 0.318966 1.976154 0.412761
v 0.318966 1.333103 0.400775
v 0.318966 1.333103 0.412761
v 0.318966 1.976154 0.400775
v 0.318966 1.333103 0.412761
v -0.318826 1.333103 0.400775
v -0.318826 1.333103 0.412761
v 0.318966 1.333103 0.400775
v -0.318826 1.976154 0.412761
v -0.377367 1.306583 0.412761
v -0.318826 1.333103 0.412761
v 0.377508 1.306583 0.412761
v 0.318966 1.333103 0.412761
v 0.377508 2.025551 0.412761
v 0.318966 1.976154 0.412761
v -0.377367 2.025551 0.412761
v -0.377367 2.025551 0.368911
v -0.432725 2.071966 0.412761
v -0.432725 2.071966 0.327399
v 0.432725 2.071966 0.327399
v 0.377508 2.025551 0.368911
v 0.432725 2.071966 0.412761
v -0.377367 2.025551 0.412761
v 0.377508 2.025551 0.412761
v 0.377508 1.189677 0.368911
v 0.313401 1.190012 0.412761
v 0.313401 1.190012 0.368911
v 0.377508 1.189677 0.412761
v -0.313347 1.230622 0.368911
v -0.313347 1.189720 0.412761
v -0.313347 1.189720 0.368911
v -0.313347 1.230643 0.412761
v 0.209191 1.264372 0.412761
v 0.313401 1.230579 0.368911
v 0.313401 1.230599 0.412761
v -0.313347 1.230622 0.368911
v -0.205776 1.264372 0.412761
v -0.313347 1.230643 0.412761
v 0.077796 1.283296 0.412761
v 0.209191 1.264814 0.368911
v -0.074382 1.283913 0.368911
v -0.074382 1.283296 0.412761
v -0.205776 1.264814 0.368911
v 0.077796 1.283913 0.368911
v 0.432725 2.071966 0.327399
v 0.432725 2.081970 0.327399
v 0.432725 2.081970 0.412761
v 0.432725 2.071966 0.412761
v 0.318966 1.333103 0.368911
v 0.318966 1.976154 0.380898
v 0.318966 1.976154 0.368911
v 0.318966 1.333103 0.380898
v -0.318826 1.976154 0.368911
v -0.318826 1.333103 0.380898
v -0.318826 1.333103 0.368911
v -0.318826 1.976154 0.380898
v 0.318966 1.976154 0.368911
v -0.318826 1.976154 0.380898
v -0.318826 1.976154 0.368911
v 0.318966 1.976154 0.380898
v -0.318826 1.976154 0.368911
v 0.377508 2.025551 0.368911
v 0.318966 1.976154 0.368911
v 0.318966 1.333103 0.368911
v -0.377367 1.306583 0.368911
v -0.318826 1.333103 0.368911
v -0.377367 2.025551 0.368911
v 0.377508 1.306583 0.368911
v 0.432725 2.081970 0.412761
v 0.432725 2.081970 0.327399
v -0.432725 2.081970 0.327399
v -0.432725 2.081970 0.412761
v -0.432725 2.081970 0.327399
v -0.432725 2.071966 0.412761
v -0.432725 2.081970 0.412761
v -0.432725 2.071966 0.327399
v -0.318826 1.333103 0.368911
v 0.318966 1.333103 0.380898
v 0.318966 1.333103 0.368911
v -0.318826 1.333103 0.380898
v -0.377367 2.025551 0.412761
v -0.377367 2.025551 0.368911
v -0.377367 1.306583 0.368911
v -0.377367 1.189677 0.412761
v -0.377367 1.306583 0.412761
v -0.377367 1.189677 0.368911
v -0.432725 2.071966 0.327399
v 0.432725 2.081970 0.327399
v 0.432725 2.071966 0.327399
v -0.432725 2.081970 0.327399
v -0.377367 1.189677 0.368911
v -0.377367 1.306583 0.368911
v -0.313347 1.230622 0.368911
v 0.209191 1.264814 0.368911
v 0.313401 1.306583 0.368911
v 0.313401 1.230579 0.368911
v 0.377508 1.189677 0.368911
v 0.377508 1.306583 0.368911
v 0.077796 1.283913 0.368911
v 0.209191 1.306583 0.368911
v -0.205776 1.306583 0.368911
v -0.074382 1.283913 0.368911
v -0.205776 1.264814 0.368911
v -0.074382 1.306583 0.368911
v -0.313347 1.306583 0.368911
v -0.313347 1.189720 0.368911
v 0.313401 1.190012 0.368911
v 0.077796 1.306583 0.368911
v -0.318826 1.976154 0.412761
v 0.318966 1.976154 0.400775
v 0.318966 1.976154 0.412761
v -0.318826 1.976154 0.400775
v 0.377508 2.025551 0.412761
v 0.377508 1.306583 0.412761
v 0.377508 1.306583 0.368911
v 0.377508 1.189677 0.412761
v 0.377508 1.189677 0.368911
v 0.377508 2.025551 0.368911
v 0.432725 2.081970 0.412761
v -0.432725 2.071966 0.412761
v 0.432725 2.071966 0.412761
v -0.432725 2.081970 0.412761
v -0.313347 1.189720 0.368911
v -0.313347 1.189720 0.412761
v -0.377367 1.189677 0.412761
v -0.377367 1.189677 0.368911
v 0.077796 1.283296 0.412761
v 0.209191 1.306583 0.412761
v 0.077796 1.306583 0.412761
v -0.074382 1.283296 0.412761
v -0.205776 1.306583 0.412761
v -0.205776 1.264372 0.412761
v -0.074382 1.306583 0.412761
v -0.313347 1.306583 0.412761
v -0.313347 1.230643 0.412761
v -0.377367 1.189677 0.412761
v -0.377367 1.306583 0.412761
v 0.313401 1.230599 0.412761
v 0.377508 1.306583 0.412761
v 0.313401 1.306583 0.412761
v 0.209191 1.264372 0.412761
v -0.313347 1.189720 0.412761
v 0.313401 1.190012 0.412761
v 0.377508 1.189677 0.412761
v 0.313401 1.230579 0.368911
v 0.313401 1.190012 0.368911
v 0.313401 1.190012 0.412761
v 0.313401 1.230599 0.412761
vt 0.386288 0.642503
vt 0.073508 0.934232
vt 0.073508 0.642503
vt 0.386288 0.934232
vt 0.556261 0.750944
vt 0.848162 0.740987
vt 0.848162 0.750944
vt 0.556261 0.740987
vt 0.848161 0.730923
vt 0.556261 0.740880
vt 0.556261 0.730923
vt 0.848161 0.740880
vt 0.399303 0.620048
vt 0.054330 0.634500
vt 0.054330 0.620048
vt 0.399303 0.634500
vt 0.399303 0.949161
vt 0.431691 0.587660
vt 0.399303 0.620048
vt 0.021942 0.587660
vt 0.054330 0.620048
vt 0.021942 0.981549
vt 0.054330 0.949161
vt 0.431691 0.981549
vt 0.050825 0.044446
vt 0.095303 0.023199
vt 0.022977 0.023199
vt 0.022977 0.507019
vt 0.050825 0.485850
vt 0.095303 0.507019
vt 0.086996 0.044446
vt 0.086996 0.485850
vt 0.508730 0.530693
vt 0.544197 0.496470
vt 0.544197 0.530693
vt 0.508730 0.496470
vt 0.890946 0.496470
vt 0.878229 0.530693
vt 0.878229 0.496470
vt 0.890955 0.530693
vt 0.609590 0.633406
vt 0.555357 0.667629
vt 0.555357 0.633406
vt 0.881526 0.667629
vt 0.825545 0.633406
vt 0.881526 0.633406
vt 0.677969 0.633406
vt 0.609590 0.667629
vt 0.757165 0.667629
vt 0.757165 0.633406
vt 0.825545 0.667629
vt 0.677969 0.667629
vt 0.022977 0.023199
vt 0.022977 0.017606
vt 0.095303 0.017606
vt 0.095303 0.023199
vt 0.556261 0.730816
vt 0.848162 0.720859
vt 0.848162 0.730816
vt 0.556261 0.720858
vt 0.848162 0.751051
vt 0.556261 0.761009
vt 0.556261 0.751051
vt 0.848162 0.761009
vt 0.869217 0.710794
vt 0.556261 0.720752
vt 0.556261 0.710793
vt 0.869217 0.720752
vt 0.893978 0.949161
vt 0.508730 0.981549
vt 0.541118 0.949161
vt 0.541118 0.620048
vt 0.926366 0.587660
vt 0.893978 0.620048
vt 0.926366 0.981549
vt 0.508730 0.587660
vt 0.181320 0.507019
vt 0.108994 0.507019
vt 0.108994 0.023199
vt 0.181320 0.023199
vt 0.022977 0.512612
vt 0.095303 0.507019
vt 0.095303 0.512612
vt 0.022977 0.507019
vt 0.556261 0.700622
vt 0.869218 0.690664
vt 0.869218 0.700622
vt 0.556261 0.690665
vt 0.979585 0.981549
vt 0.945362 0.981549
vt 0.945362 0.587660
vt 0.979585 0.530693
vt 0.979585 0.587660
vt 0.945362 0.530693
vt 0.022977 0.507019
vt 0.017384 0.023199
vt 0.022977 0.023199
vt 0.017384 0.507019
vt 0.926366 0.530693
vt 0.926366 0.587660
vt 0.890946 0.543428
vt 0.601852 0.557392
vt 0.544197 0.587660
vt 0.544197 0.543410
vt 0.508730 0.530693
vt 0.508730 0.587660
vt 0.674546 0.565193
vt 0.601852 0.587660
vt 0.831433 0.587660
vt 0.758739 0.565193
vt 0.831433 0.557392
vt 0.758739 0.587660
vt 0.890946 0.587660
vt 0.890946 0.530693
vt 0.544197 0.530693
vt 0.674546 0.587660
vt 0.556261 0.690557
vt 0.869218 0.680599
vt 0.869218 0.690557
vt 0.556261 0.680600
vt 0.456110 0.981549
vt 0.456110 0.587660
vt 0.490333 0.587660
vt 0.456110 0.530693
vt 0.490333 0.530693
vt 0.490333 0.981549
vt 0.100896 0.507019
vt 0.095303 0.023199
vt 0.095303 0.507019
vt 0.100896 0.023199
vt 0.890946 0.530693
vt 0.890946 0.496470
vt 0.926366 0.496470
vt 0.926366 0.530693
vt 0.185297 0.564940
vt 0.112603 0.587660
vt 0.185297 0.587660
vt 0.269490 0.564940
vt 0.342184 0.587660
vt 0.342184 0.557212
vt 0.269490 0.587660
vt 0.396272 0.587660
vt 0.396272 0.543436
vt 0.431691 0.530693
vt 0.431691 0.587660
vt 0.057409 0.543418
vt 0.021942 0.587660
vt 0.057409 0.587660
vt 0.112603 0.557212
vt 0.396272 0.530711
vt 0.057409 0.530830
vt 0.021942 0.530693
vt 0.544205 0.496470
vt 0.556785 0.496470
vt 0.556786 0.530693
vt 0.544197 0.530693
vn 0.0000 -0.0000 1.0000
vn 1.0000 0.0000 0.0000
vn -1.0000 0.0000 0.0000
vn 0.0000 1.0000 0.0000
vn -0.0000 -1.0000 0.0000
vn -0.0001 -1.0000 -0.0000
vn 0.0001 -1.0000 -0.0000
vn -0.0038 -1.0000 0.0000
vn -0.1706 -0.9853 -0.0052
vn -0.2336 -0.9723 -0.0018
vn -0.2326 -0.9726 0.0002
vn 0.2264 -0.9740 -0.0018
vn 0.1669 -0.9860 -0.0052
vn 0.2255 -0.9742 0.0003
vn -0.0533 -0.9985 -0.0084
vn -0.1711 -0.9852 -0.0066
vn 0.0534 -0.9985 -0.0088
vn 0.0533 -0.9985 -0.0084
vn 0.1675 -0.9858 -0.0066
vn 0.1675 -0.9859 -0.0066
vn -0.0534 -0.9985 -0.0088
vn 0.0000 0.0000 -1.0000
vn 0.0007 -1.0000 0.0000
s 1
f 1/1/1 2/2/1 3/3/1
f 1/1/1 4/4/1 2/2/1
f 5/5/2 6/6/2 7/7/2
f 5/5/2 8/8/2 6/6/2
f 9/9/3 10/10/3 11/11/3
f 9/9/3 12/12/3 10/10/3
f 13/13/4 14/14/4 15/15/4
f 13/13/4 16/16/4 14/14/4
f 17/17/1 18/18/1 19/19/1
f 19/19/1 20/20/1 21/21/1
f 21/21/1 22/22/1 23/23/1
f 23/23/1 24/24/1 17/17/1
f 17/17/1 24/24/1 18/18/1
f 19/19/1 18/18/1 20/20/1
f 21/21/1 20/20/1 22/22/1
f 23/23/1 22/22/1 24/24/1
f 25/25/5 26/26/5 27/27/5
f 28/28/6 29/29/5 25/25/5
f 30/30/5 26/26/5 31/31/5
f 30/30/7 31/31/5 32/32/5
f 25/25/5 31/31/5 26/26/5
f 30/30/5 32/32/5 29/29/5
f 30/30/5 29/29/5 28/28/5
f 28/28/5 25/25/5 27/27/5
f 33/33/8 34/34/8 35/35/8
f 33/33/8 36/36/8 34/34/8
f 37/37/2 38/38/2 39/39/2
f 37/37/2 40/40/2 38/38/2
f 41/41/9 42/42/10 43/43/11
f 44/44/12 45/45/13 46/46/14
f 47/47/15 48/48/16 41/41/9
f 49/49/17 47/47/15 50/50/18
f 51/51/19 50/50/18 45/45/13
f 44/44/12 51/51/20 45/45/13
f 41/41/9 48/48/16 42/42/10
f 47/47/15 52/52/21 48/48/16
f 49/49/17 52/52/21 47/47/15
f 51/51/19 49/49/17 50/50/18
f 53/53/2 54/54/2 55/55/2
f 53/53/2 55/55/2 56/56/2
f 57/57/3 58/58/3 59/59/3
f 57/57/3 60/60/3 58/58/3
f 61/61/2 62/62/2 63/63/2
f 61/61/2 64/64/2 62/62/2
f 65/65/5 66/66/5 67/67/5
f 65/65/5 68/68/5 66/66/5
f 69/69/22 70/70/22 71/71/22
f 72/72/22 73/73/22 74/74/22
f 74/74/22 75/75/22 69/69/22
f 71/71/22 76/76/22 72/72/22
f 69/69/22 75/75/22 70/70/22
f 72/72/22 76/76/22 73/73/22
f 74/74/22 73/73/22 75/75/22
f 71/71/22 70/70/22 76/76/22
f 77/77/4 78/78/4 79/79/4
f 77/77/4 79/79/4 80/80/4
f 81/81/3 82/82/3 83/83/3
f 81/81/3 84/84/3 82/82/3
f 85/85/4 86/86/4 87/87/4
f 85/85/4 88/88/4 86/86/4
f 89/89/3 90/90/3 91/91/3
f 92/92/3 93/93/3 91/91/3
f 91/91/3 94/94/3 92/92/3
f 91/91/3 93/93/3 89/89/3
f 95/95/22 96/96/22 97/97/22
f 95/95/22 98/98/22 96/96/22
f 99/99/22 100/100/22 101/101/22
f 102/102/22 103/103/22 104/104/22
f 105/105/22 104/104/22 106/106/22
f 107/107/22 108/108/22 102/102/22
f 109/109/22 110/110/22 111/111/22
f 112/112/22 107/107/22 110/110/22
f 113/113/22 111/111/22 101/101/22
f 113/113/22 101/101/22 100/100/22
f 114/114/22 99/99/22 101/101/22
f 102/102/22 108/108/22 103/103/22
f 103/103/22 106/106/22 104/104/22
f 105/105/22 115/115/22 104/104/22
f 107/107/22 116/116/22 108/108/22
f 109/109/22 112/112/22 110/110/22
f 112/112/22 116/116/22 107/107/22
f 113/113/22 109/109/22 111/111/22
f 117/117/5 118/118/5 119/119/5
f 117/117/5 120/120/5 118/118/5
f 121/121/2 122/122/2 123/123/2
f 124/124/2 123/123/2 122/122/2
f 124/124/2 125/125/2 123/123/2
f 123/123/2 126/126/2 121/121/2
f 127/127/1 128/128/1 129/129/1
f 127/127/1 130/130/1 128/128/1
f 131/131/23 132/132/23 133/133/23
f 131/131/23 133/133/23 134/134/23
f 135/135/1 136/136/1 137/137/1
f 138/138/1 139/139/1 140/140/1
f 135/135/1 141/141/1 138/138/1
f 140/140/1 142/142/1 143/143/1
f 144/144/1 143/143/1 145/145/1
f 146/146/1 147/147/1 148/148/1
f 149/149/1 148/148/1 136/136/1
f 135/135/1 149/149/1 136/136/1
f 138/138/1 141/141/1 139/139/1
f 135/135/1 137/137/1 141/141/1
f 140/140/1 139/139/1 142/142/1
f 142/142/1 145/145/1 143/143/1
f 144/144/1 150/150/1 143/143/1
f 146/146/1 151/151/1 152/152/1
f 152/152/1 147/147/1 146/146/1
f 149/149/1 146/146/1 148/148/1
f 153/153/3 154/154/3 155/155/3
f 153/153/3 155/155/3 156/156/3
o 1_TEX_200_Mesh.007
v -0.318826 1.333103 0.368911
v -0.333486 2.326042 0.124266
v -0.318826 1.976155 0.368911
v 0.333626 2.326042 0.124266
v 0.318966 1.333103 0.368911
v 0.318966 1.976155 0.368911
v -0.333486 1.045099 0.124266
v 0.333626 1.045099 0.124266
v -0.112382 1.045099 -0.059987
v 0.112523 2.326042 -0.059987
v -0.222934 2.326042 -0.035302
v -0.222934 1.045099 -0.035302
v -0.303864 1.045099 0.032139
v 0.304004 1.045099 0.032139
v 0.304004 2.326042 0.032139
v 0.223074 1.045099 -0.035302
v 0.223074 2.326042 -0.035302
v 0.112523 1.045099 -0.059987
v -0.112382 2.326042 -0.059987
v -0.303864 2.326042 0.032139
vt 0.517733 0.141046
vt 0.601452 0.360333
vt 0.519560 0.293152
vt 0.835324 0.359166
vt 0.904280 0.139103
vt 0.906117 0.288956
vt 0.614422 0.040366
vt 0.814023 0.039715
vt 0.684914 0.082605
vt 0.818863 0.390678
vt 0.619200 0.391217
vt 0.748360 0.348378
vt 0.655776 0.349438
vt 0.653847 0.081049
vt 0.625560 0.071274
vt 0.597988 0.071918
vt 0.804323 0.070818
vt 0.831787 0.070650
vt 0.807767 0.359768
vt 0.777427 0.081494
vt 0.779506 0.349976
vt 0.746515 0.084271
vt 0.686778 0.346713
vt 0.617305 0.004578
vt 0.812669 0.004739
vt 0.815912 0.506659
vt 0.620513 0.506396
vt 0.628899 0.360121
vn 0.8060 0.3736 -0.4591
vn 0.6674 -0.7012 -0.2508
vn 0.8061 -0.3736 -0.4590
vn -0.6674 -0.7012 -0.2508
vn -0.8060 0.3736 -0.4591
vn -0.8060 -0.3736 -0.4591
vn 0.6674 0.7012 -0.2508
vn -0.6674 0.7012 -0.2508
vn 0.0863 0.6113 0.7866
vn -0.0863 -0.6113 0.7866
vn 0.0863 0.6113 0.7867
vn 0.3471 -0.5990 0.7216
vn 0.3472 0.5990 0.7216
vn 0.3472 -0.5990 0.7216
vn 0.6360 0.6335 0.4407
vn 0.6360 0.6335 0.4406
vn 0.6674 -0.7012 -0.2507
vn -0.6674 -0.7012 -0.2507
vn -0.6360 0.6335 0.4406
vn -0.6360 -0.6335 0.4407
vn -0.3472 0.5990 0.7216
vn -0.3471 -0.5990 0.7216
vn -0.0863 0.6113 0.7867
vn 0.0863 -0.6113 0.7866
vn 0.6674 0.7012 -0.2507
vn -0.6674 0.7012 -0.2507
vn -0.6359 0.6336 0.4407
vn -0.3472 0.5990 0.7215
vn -0.0863 0.6113 0.7866
vn -0.0862 0.6113 0.7866
vn 0.3472 0.5990 0.7215
vn 0.6359 0.6336 0.4407
vn -0.8061 -0.3736 -0.4590
vn 0.6648 -0.7045 -0.2485
vn 0.6359 -0.6336 0.4407
vn 0.3472 -0.5990 0.7215
vn 0.0862 -0.6114 0.7866
vn -0.0863 -0.6114 0.7866
vn -0.3472 -0.5990 0.7216
vn -0.3472 -0.5990 0.7215
vn -0.6359 -0.6336 0.4407
vn 0.0863 -0.6113 0.7867
vn 0.6360 -0.6335 0.4406
vn -0.6360 -0.6335 0.4406
vn -0.6360 0.6335 0.4407
vn -0.0863 -0.6113 0.7867
s 1
f 157/157/24 158/158/25 159/159/26
f 160/160/27 161/161/28 162/162/29
f 163/163/30 164/164/31 165/165/32
f 160/166/27 158/167/25 166/168/33
f 165/165/34 167/169/35 168/170/36
f 167/169/37 169/171/38 168/170/36
f 169/171/39 158/158/40 163/172/30
f 160/160/41 170/173/42 164/174/31
f 171/175/43 172/176/44 170/173/42
f 173/177/45 174/178/46 172/176/44
f 165/165/34 166/168/33 175/179/47
f 157/157/24 163/172/48 158/158/25
f 160/160/27 164/174/49 161/161/28
f 157/180/24 161/181/28 164/164/31
f 164/164/31 170/173/50 172/176/51
f 172/176/51 174/178/52 164/164/31
f 174/178/53 165/165/32 164/164/31
f 165/165/32 168/170/54 163/163/30
f 168/170/54 169/171/55 163/163/30
f 163/163/48 157/180/24 164/164/49
f 162/182/56 159/183/26 158/167/57
f 158/167/25 176/184/58 167/169/59
f 167/169/37 175/179/47 158/167/25
f 175/179/60 166/168/61 158/167/25
f 166/168/33 173/177/62 160/166/27
f 173/177/63 171/175/64 160/166/27
f 160/166/27 162/182/29 158/167/25
f 165/165/34 175/179/65 167/169/37
f 167/169/37 176/184/66 169/171/38
f 169/171/38 176/184/66 158/158/25
f 160/160/27 171/175/67 170/173/68
f 171/175/43 173/177/62 172/176/44
f 173/177/62 166/168/69 174/178/46
f 165/165/34 174/178/46 166/168/33
o DEPTH_MASK_PORTAL_Mesh.008
v -0.318826 1.976155 0.380898
v 0.318966 1.976155 0.380898
v -0.318826 1.333102 0.380897
v 0.318966 1.333102 0.380897
vt 0.000973 0.999002
vt 0.000973 0.000998
vt 0.973864 0.999002
vt 0.973864 0.000998
vn 0.0000 0.0000 -1.0000
s 1
f 177/185/70 178/186/70 179/187/70
f 179/187/70 178/186/70 180/188/70
